# xmcd
#
# Track frame offsets: 
#        150
#        38584
#        63309
#        101881
#        126214
#        164568
#        192270
#        209764
#        224458
#        238818
#        261028
#        297209
#
# Disc length: 4276 seconds
#
# Revision: 2
# Processed by: cddbd v1.5.2PL0 Copyright (c) Steve Scherf et al.
# Submitted via: ExactAudioCopy v0.99pb4
#
DISCID=bf10b20c
DTITLE=Daniel Wang - Idealism
DYEAR=2005
DGENRE=House
TTITLE0=Let's Go To Mars
TTITLE1=24 To Vector Z
TTITLE2=Islands
TTITLE3=Rings of Saturn
TTITLE4=All Flowers Must Fade
TTITLE5=To Hold You Again
TTITLE6=Altitude
TTITLE7=Ambiguities
TTITLE8=Misty
TTITLE9=Let's Go To Mars (Instrumental Reprise)
TTITLE10=Black Boots and Sine Waves
TTITLE11=Glimmer In His Eyes
EXTD=YEAR: 2005
EXTT0=
EXTT1=
EXTT2=
EXTT3=
EXTT4=
EXTT5=
EXTT6=
EXTT7=
EXTT8=
EXTT9=
EXTT10=
EXTT11=
PLAYORDER=
